<svg width="396" height="260" viewBox="0 0 396 260" fill="none" xmlns="http://www.w3.org/2000/svg">
	<path d="M111.54 10.4C97.1025 13.8171 83.49 23.6971 76.9725 35.4343C70.5375 47.0229 70.7025 43.68 71.115 125.023L71.5275 197.229L73.3425 202.057C76.3125 209.857 80.685 216.171 86.955 221.817C93.4725 227.611 99.165 230.806 108.652 233.851L115.088 235.857L196.763 235.783C288.503 235.709 281.985 236.08 294.855 230.063C306.653 224.566 315.81 214.76 320.678 202.429L322.988 196.486V122.2V47.9143L320.76 42.4914C317.543 34.6171 313.913 29.3429 307.313 23.4C300.713 17.4571 294.855 14.1886 286.11 11.2914L280.088 9.28571L198.825 9.13714C120.78 8.98857 117.315 9.06286 111.54 10.4ZM214.5 22.4343C255.008 27.4857 281.408 57.7943 283.305 101.623C283.553 107.491 284.295 112.617 285.368 116.109L287.1 121.457L283.388 143C279.923 163.206 279.593 164.617 277.613 166.177C274.89 168.331 274.23 168.331 272.085 166.177L270.435 164.469L267.96 166.549C265.073 169 259.133 170.709 251.543 171.303C245.19 171.897 240.488 170.783 239.085 168.406C238.013 166.623 238.673 146.343 240.158 135.943C242.22 121.086 247.005 107.12 251.13 104C253.11 102.589 260.205 103.554 266.145 106.229C270.683 108.234 271.59 109.051 274.808 113.806L278.355 119.229L279.015 117C280.17 113.36 280.088 97.3886 278.933 91.3714C276.045 76.8114 267.218 60.7657 257.07 51.5543C251.708 46.8 242.22 40.7829 234.3 37.1429C211.695 26.8914 184.47 26.5943 161.947 36.4743C154.027 40.04 140.663 48.6571 136.043 53.1886C127.215 62.1029 119.46 76.5143 116.16 90.2571C114.923 95.4571 114.84 114.623 116.078 117.297C116.82 119.006 117.068 118.783 120.12 113.954C123.008 109.349 123.915 108.606 128.535 106.451C134.558 103.703 140.333 102.663 143.22 103.926C146.685 105.337 150.975 115.811 153.945 130.074C154.77 133.937 155.43 142.629 155.677 152.806L156.172 169.371L153.203 170.486C145.943 173.234 130.598 170.486 125.4 165.509C124.08 164.171 123.75 164.097 123.75 165.137C123.75 165.806 123.008 166.697 122.018 167.143C119.955 168.183 116.655 166.549 115.5 163.949C115.088 163.057 113.19 153.177 111.375 141.96L107.91 121.606L109.642 115.589C110.632 111.874 111.457 106.006 111.705 100.286C112.2 89.8114 113.685 81.9371 116.82 73.2457C130.68 34.5429 165.742 16.3429 214.5 22.4343Z" fill="white" />
</svg>
